<?xml version="1.0" encoding="utf-8"?>
<!-- Generator: Adobe Illustrator 25.0.0, SVG Export Plug-In . SVG Version: 6.00 Build 0)  -->
<svg version="1.1" id="Layer_1" xmlns="http://www.w3.org/2000/svg" xmlns:xlink="http://www.w3.org/1999/xlink" x="0px" y="0px"
	 viewBox="0 0 325 280" style="enable-background:new 0 0 325 280;" xml:space="preserve">
<g>
	<path d="M303.5,191.2c0,3.9,0,7.6,0,11.5c-2.7,0-5.1,0-7.6,0c-0.3,0-0.7-0.6-0.7-1c-0.2-1.5-0.2-3.1-0.3-4.6c0-1.6,0-3.1,0-4.7
		c0-0.9-0.3-1.2-1.2-1.2c-10,0-20.1,0-30.1,0c-0.9,0-1.1,0.4-1.1,1.2c0,2.9,0,5.8,0,8.7c0,1.2-0.3,1.7-1.6,1.6c-2-0.1-4-0.1-6,0
		c-1,0-1.3-0.3-1.3-1.3c0-3,0-5.9,0-8.9c0-1.1-0.4-1.4-1.4-1.4c-9,0-18.1,0.1-27.1,0c-1.9,0-1.6,1.5-1.8,2.4
		c-0.7,2.5-1.2,5.1-1.8,7.7c-0.2,1-0.7,1.5-1.8,1.4c-5.4,0-10.8,0-16.2,0c-0.9,0-1.2-0.3-1.5-1.2c-1.2-3.4-3.1-6.5-6.4-8.5
		c-0.8-0.5-1.5-1-2.3-1.4c-1.9-1.1-1.8-3.1-2-4.8c-0.5-3.8-0.9-7.6-1.3-11.3c-0.5-4.8-1-9.6-1.4-14.4c-0.2-2.7-0.4-5.5-0.6-8.2
		c-0.2-3.4-0.3-6.9-0.5-10.3c-0.1-1.8-0.3-3.6-0.6-5.4c-0.1-0.4-0.8-1.1-1.3-1.1c-3.7-0.3-7-1.6-9.6-4.1c-1.3-1.2-2.3-2.9-3-4.6
		c-1.8-4-1-8.1,0.5-12c0.9-2.3,1.9-4.5,2.9-6.7c0.1-0.3,0.4-0.5,0.7-0.9c-0.9,2.6-1.7,5-2.4,7.4c-1,3.6-1.7,7.2-0.6,11
		c0.8,3,2.9,5,5.5,6.3c3.1,1.5,6.5,2.1,9.9,1.1c1.2-0.4,2.4-0.8,3.7-1.2c3-0.9,4.1-3.3,4.2-6c0.2-4,0.3-8.1-0.3-12.1
		c-1-6-2.8-11.8-5.4-17.4c-1.8-3.8-3.8-7.5-6.7-10.4c-1.6-1.7-3.8-2.9-5.9-4c-3.8-2-7.9-2.9-12.2-2.6c-2.7,0.1-5.5,0.5-8.2,1.2
		c-4.8,1.2-9.5,0.8-14.2-0.6c-3.4-1-6.8-2-10.3-2.6c-3.7-0.6-4.2,1.2-5,4.2c-1.1,4-1.3,8.2-0.8,12.3c0.8,6.7,2.7,13,8.2,17.6
		c3.3,2.7,7,4.7,10.9,6.2c3.7,1.4,7.5,2.6,11.2,3.9c1,0.4,2.1,0.6,3.2,0.8c0.9,0.2,1.2,0.7,0.8,1.5c-1.2,2.8-2.3,5.7-3.8,8.4
		c-1.3,2.5-2.8,5.1-4.6,7.2c-4,4.8-8.2,9.4-12.5,13.9c-3.9,4.1-7.6,8.2-10.8,12.9c-1.9,2.9-3.5,5.9-4.5,9.3
		c-0.9,3.1-1.7,6.2-2.7,9.7c-0.8-1.6-1.8-2.9-2.2-4.4c-1.4-5.3,1.1-9.4,4.5-13.1c0.7-0.8,1.4-1.6,2.1-2.3c0.8-0.7,1.1-1.6,0.3-2.3
		c-0.5-0.4-1.6-0.6-2.3-0.4c-2.8,1.1-5.1,2.8-6.9,5.2c-2.1,2.6-3.6,5.4-4.5,8.6c-0.7,2.7-0.6,5.4,0,8.1c0.7,3.4,2.2,6.3,4.3,8.9
		c1.3,1.6,3,3,4.6,4.4c0.8,0.7,1.6,2.8,1.2,3.7c-0.1,0.3-0.7,0.5-1,0.5c-6,0-12.1,0-18.1,0c-0.3,0-0.9-0.5-1-0.8
		c-0.7-2.6-1.4-5.2-2-7.8c0-0.1-0.1-0.2-0.2-0.4c-0.5-2.4-0.5-2.4-3.1-2.4c-8.6,0-17.1,0-25.7,0c-1.4,0-1.7,0.4-1.6,1.7
		c0.1,2.8,0,5.5,0,8.3c0,1.1-0.2,1.6-1.5,1.6c-1.8-0.1-3.7-0.1-5.5,0c-1.2,0-1.7-0.3-1.7-1.6c0.1-2.8,0-5.6,0-8.4
		c0-1.1-0.3-1.5-1.4-1.5c-9.9,0-19.9,0-29.8,0c-1.1,0-1.4,0.5-1.4,1.4c0,2.9,0,5.9,0.1,8.8c0,0.8-0.3,1.2-1.1,1.2
		c-2.2,0-4.5,0.1-6.7,0c-0.3,0-0.9-0.7-1-1.1c-0.1-2.9,0-5.8,0.1-8.7c0.1-1.4-0.5-1.7-1.7-1.7c-4.4,0-8.7,0-13.1,0
		c-2.2,0-4.7-2-5.1-3.9c-0.3-1.9,2.2-5,4.5-4.9c4.5,0.1,9.1,0,13.6,0c1.2,0,1.5-0.4,1.5-1.5c0-2.4,0.2-4.8,0.2-7.3
		c0-1.4-0.1-2.8-0.3-4.1c-0.1-0.3-0.8-0.8-1.3-0.8c-4.4-0.1-8.7,0-13.1,0c-2.6,0-4.4-1.4-5.1-3.9c-0.5-1.9,1.9-4.7,4.1-4.7
		c4.6,0,9.2,0,13.8,0c1.1,0,1.8-0.2,1.7-1.5c0-1,0.1-1.9,0.4-2.9c0.5-2.1,2.6-3.5,4.6-3.4c1.8,0.1,3.8,2.3,3.9,4.4
		c0.2,3.4,0.2,3.4,3.6,3.4c9.1,0,18.3,0,27.4,0c1.3,0,1.7-0.4,1.6-1.6c0-0.4,0-0.8,0-1.3c-0.2-2.9,1.6-4,3.9-4.9
		c1-0.4,3.1,0.7,3.9,1.9c1,1.3,0.9,2.8,0.8,4.3c-0.1,1.1,0.3,1.6,1.5,1.6c6.5-0.1,12.9,0,19.4,0c1.2,0,1.6-0.4,1.3-1.6
		c-1.2-4.9-2.4-9.8-3.6-14.8c-1.4-5.8-2.9-11.6-4.3-17.3c-0.9-3.7-1.8-7.5-2.6-11.2c-0.4-2-1.4-3.1-3.2-4c-4.6-2.3-9.1-4.7-13.6-7
		c-2.2-1.1-4.3-2.4-6.5-3.4c-0.7-0.4-0.7-0.7-0.3-1.1c1.3-1.3,2.7-2.6,4.1-3.9c0.7-0.6,1.3-1.3,2-1.9c3.8-3.4,7.5-6.8,11.3-10.3
		c4.7-4.4,9.4-8.9,14.1-13.3c3.7-3.5,7.4-6.9,11.1-10.4c5.5-5.1,11-10.3,16.6-15.4c4-3.7,8.1-7.3,12.1-11.1c2.6-2.4,5-5,7.6-7.5
		c2.3-2.2,4.7-4.3,7-6.5c1.9-1.8,3.8-3.7,5.7-5.5c3.3-3,6.5-6,9.8-8.9c1.5-1.4,1.6-1.2,3,0.3c2.3,2.4,4.8,4.6,7.2,6.9
		c1.2,1.2,2.5,2.3,3.8,3.4c2.4,2.2,4.8,4.5,7.2,6.8c5.1,4.7,10.2,9.4,15.2,14.2c2.7,2.5,5.2,5.1,7.9,7.6c4.7,4.5,9.5,8.9,14.3,13.4
		c2.5,2.4,5.2,4.6,7.7,7c3.3,3.1,6.5,6.3,9.8,9.3c4.4,4.1,8.8,8.2,13.3,12.3c3.5,3.2,6.9,6.3,10.4,9.4c1.6,1.5,3.4,2.8,5.1,4.2
		c-0.2,0.3-0.3,0.5-0.5,0.8c-1,0.6-1.9,1.2-2.9,1.7c-4.7,2.5-9.5,5-14.2,7.5c-1.7,0.9-3.6,1.6-5.2,2.7c-0.7,0.5-1.4,1.5-1.6,2.4
		c-1.4,5.7-2.7,11.4-4,17.2c-0.9,3.9-1.7,7.8-2.6,11.7c-0.7,2.8-1.5,5.6-2.2,8.4c-0.5,2.2-1,4.3-1.5,6.5c-0.1,0.5,0,1.1,0,1.8
		c0.7,0,1.2,0,1.7,0c5.9,0,11.9,0,17.8,0c2.3,0,2.2,0,2.3-2.3c0.1-2.1,0.7-3.9,2.8-4.9c2.3-1.2,5.4,0.3,5.9,2.9
		c0.2,1,0.3,2.1,0.3,3.2c0,0.7,0.2,1.2,1,1.1c3.4-0.1,6.8-0.1,10.2-0.2c0.6,0,1.2,0.2,1.7,0.2c5.9,0,11.7,0,17.6,0
		c1.6,0,2.3-0.8,2-2.3c-0.5-2.4,1.2-4.8,3.6-5.3c2.1-0.4,5.2,1.8,4.7,4.1c-0.1,0.7,0,1.4,0,2.2c0,0.9,0.3,1.4,1.4,1.4
		c4.8-0.1,9.7,0,14.5,0c2.4,0,3.5,1.6,4.1,3.5c0.4,1.3-0.7,3.5-2.2,4.1c-1.1,0.5-2.3,0.8-3.4,0.9c-4.2,0.1-8.4,0.1-12.6,0
		c-1.3,0-1.7,0.5-1.7,1.6c0,3.7,0.1,7.4,0.2,11.2c0,0.9,0.6,1,1.4,1c4.5,0,9,0,13.5,0c2.5,0,4.9,2,5,4.1c0.1,2.4-2.4,4.7-4.8,4.7
		c-4.5,0-9,0-13.5,0C304.8,191.2,304.3,191.2,303.5,191.2z M278.7,182.1c4.6,0,9.3,0,13.9,0c2,0,2.1-0.1,2.1-2.2
		c0-3.2-0.1-6.3-0.1-9.5c0-1.1-0.5-1.5-1.5-1.4c-3.5,0-7,0-10.5,0c-6,0-12.1,0-18.1,0c-1.1,0-1.8,0.2-1.8,1.6c0.1,3,0.2,6.1,0,9.1
		c-0.2,2.5,0,2.4,2.4,2.4C269.7,182.1,274.2,182.1,278.7,182.1z M47.5,182.1c4.7,0,9.5-0.1,14.2,0c1.5,0,1.8-0.5,1.8-1.9
		c-0.1-3.2-0.1-6.4,0-9.5c0-1.3-0.3-1.8-1.7-1.8c-9.3,0.1-18.6,0-27.9,0c-2.2,0-2.4,0.2-2.3,2.4c0,3.1,0.1,6.2,0.1,9.2
		c0,1.3,0.4,1.5,1.5,1.5C37.8,182,42.6,182.1,47.5,182.1z M96.6,168.9c-7.8,0-15.4,0-23,0c-0.9,0-1,0.5-1,1.3c0,3.4,0,6.7,0,10.1
		c0,1.3,0.4,1.8,1.7,1.8c7.5-0.1,15.1,0,22.6,0c2.7,0,2.8,0,2.2-2.6C98.3,176,97.4,172.5,96.6,168.9z M240,182.1c3.9,0,7.8,0,11.6,0
		c1.2,0,1.8-0.2,1.7-1.6c-0.1-3.3-0.1-6.6,0-10c0-1.3-0.4-1.6-1.6-1.6c-6.6,0-13.3,0-19.9,0c-2.4,0-2.4,0-3,2.3
		c-0.7,3.1-1.3,6.2-2,9.2c-0.3,1.3,0.1,1.6,1.3,1.6C232.1,182,236,182.1,240,182.1z"/>
	<path d="M253.4,243.7c0-0.5-0.1-0.9-0.1-1.3c0-5.9,0-11.7,0-17.6c0-0.7-0.1-1.4,1-1.5c4.1-0.3,8.2-0.6,12.3,0.3
		c3.5,0.8,6.6,2.4,7.8,6.1c1.2,3.7,0.7,7.2-1.9,10.1c-0.9,1-2.2,1.9-3.5,2.5C264,244.6,258.7,244.1,253.4,243.7z M259,226.9
		c0,4.5,0,8.9,0,13.3c2.4,0.8,7.2-0.1,8.9-2.5c1.5-2.1,1.8-6,0.4-8.1C266.7,227.2,263,226.1,259,226.9z"/>
	<path d="M138.1,243.9c0-5.3,0-10.3,0-15.2c0-1.4-0.1-2.8,0-4.2c0-0.3,0.5-0.9,0.8-0.9c4.1-0.4,8.3-0.7,12.4,0.2
		c3.9,0.9,7,2.7,8,6.9c1,4.1,0,7.7-3.4,10.4c-2.4,1.9-5.3,2.6-8.2,2.8C144.6,244.1,141.4,243.9,138.1,243.9z M143.6,226.9
		c0,4.4,0,8.6,0,12.9c0,0.3,0.6,0.8,1,0.8c1.6-0.1,3.3-0.1,4.8-0.6c2.6-0.7,4-2.6,4.4-5.3c0.4-2.6,0-5.1-2.4-6.7
		C149,226.4,146.4,226.6,143.6,226.9z"/>
	<path d="M90.1,243.8c0-7.2,0-14.3,0-21.4c1.8,0,3.6,0,5.4,0c0,2.8,0,5.5,0,8.4c1.8-1.6,3.8-2.3,6-2.1c2.3,0.2,4.2,1.1,5.5,2.9
		c2.2,3,1.6,7.8-1.2,10.4c-2.9,2.7-7.4,2.7-11-0.2c-0.1,0.6-0.3,1.2-0.4,1.9c-0.7,0-1.5,0-2.2,0C91.6,243.8,90.9,243.8,90.1,243.8z
		 M99,232.1c-2.1,0-3.4,1.3-3.5,3.3c0,0.7,0,1.3,0,2c0,1.6,0.9,2.7,2.5,3.1c1.5,0.3,2.8,0,3.8-1.2c1.2-1.6,1.3-3.3,0.5-5.1
		C101.7,232.8,100.6,232.1,99,232.1z"/>
	<path d="M210.1,241.8c-0.1,0.6-0.2,1-0.3,1.5c0,0.1-0.1,0.3-0.1,0.4c-1.5,0-2.9,0-4.3,0c0-7.1,0-14.2,0-21.3c1.8,0,3.5,0,5.4,0
		c0,2.7,0,5.5,0,8.5c2.2-2,4.6-2.5,7.2-2c1.6,0.3,3,1.1,4.1,2.5c2.3,3,2,7.8-0.8,10.5C218.4,244.8,213.9,244.8,210.1,241.8z
		 M215,232.1c-2.8,0-4.1,1.3-4.2,3.4c0,0.7,0,1.4,0,2.1c0.1,1.5,0.9,2.4,2.3,2.8c1.5,0.5,2.9,0.2,4-1c1.1-1.2,1.4-3.5,0.6-5.1
		C217,232.9,215.9,232.2,215,232.1z"/>
	<path d="M27.1,224c-0.4,1.3-0.8,2.4-1.1,3.3c-2.1-0.2-4.2-0.4-6.2-0.5c-0.4,0-0.9,0.1-1.3,0.3c-1.6,0.7-1.7,2.3-0.3,3.1
		c0.9,0.6,2,0.9,3.1,1.3c1.2,0.5,2.6,0.9,3.7,1.5c4.2,2.4,4.1,7.1-0.1,9.5c-3.2,1.8-6.6,1.7-10.1,1.2c-1.1-0.2-2.2-0.5-3.5-0.9
		c0.4-1.3,0.7-2.5,1-3.4c2.6,0.3,5,0.5,7.3,0.7c0.5,0,1.1-0.1,1.5-0.4c0.5-0.4,1.2-1.1,1.3-1.7c0-0.6-0.5-1.5-1-1.8
		c-1.1-0.7-2.4-1-3.6-1.5c-1.2-0.5-2.4-1-3.5-1.7c-3.6-2.3-3.4-6.6,0.3-8.7C18.5,222.3,22.7,222.8,27.1,224z"/>
	<path d="M111.5,247c1.3-0.7,2.5-1.2,3.6-1.9c1.4-1,1.5-1.6,0.7-3.2c-1.9-4-3.8-7.9-5.7-11.9c-0.1-0.2-0.2-0.5-0.4-0.9
		c1.9,0,3.7-0.1,5.4,0c0.3,0,0.7,0.6,0.9,1.1c1.1,2.9,2.1,5.8,3.3,9.1c0.5-1.7,0.9-3.1,1.4-4.5c0.5-1.6,0.9-3.2,1.5-4.8
		c0.1-0.4,0.7-0.9,1.1-0.9c1.5-0.1,3.1,0,4.9,0c-0.5,1.3-0.9,2.4-1.4,3.4c-1.7,3.8-3.4,7.7-5.2,11.5c-1.6,3.2-4,5.5-7.6,6.4
		c-1,0.3-1.6,0.1-1.8-1C112,248.5,111.7,247.7,111.5,247z"/>
	<path d="M243.4,229c-2.7,5.8-4.5,11.7-7.9,16.9c-1.6,2.4-3.8,3.8-6.5,4.5c-0.9,0.2-1.4,0.1-1.6-0.9c-0.2-0.9-0.5-1.7-0.7-2.5
		c1.2-0.6,2.3-1,3.3-1.7c1.6-1,1.7-1.8,0.9-3.5c-1.9-4-3.8-7.9-5.7-11.9c-0.1-0.2-0.2-0.5-0.4-0.9c1.9,0,3.6-0.1,5.3,0
		c0.3,0,0.8,0.6,1,0.9c1.1,3,2.2,5.9,3.4,9.3c0.9-2.9,1.7-5.5,2.4-8.1c0.6-2.1,0.6-2.1,2.7-2.1C240.8,229,242,229,243.4,229z"/>
	<path d="M180.8,236.3c0,3.8-2.7,6.7-6.8,7.6c-2.2,0.5-4.4,0.3-6.6-0.5c-3.1-1.2-5-3.7-5.1-6.7c-0.1-3.2,1.7-6,4.8-7.2
		c3.3-1.3,6.6-1.3,9.8,0.4C179.5,231.3,180.7,233.6,180.8,236.3z M167.9,236.7c0,1.4,0.4,3,2.2,3.9c1.2,0.6,2.5,0.4,3.5-0.4
		c2-1.6,2.1-5.7,0.1-7.4c-0.6-0.5-1.4-0.8-2.1-0.9C169.4,231.7,167.9,233.5,167.9,236.7z"/>
	<path d="M193,228.4c1.5,0.5,3.5,0.7,5.2,1.6c4.9,2.7,4.9,9.6,0.1,12.5c-3.6,2.2-7.5,2.2-11.2,0.3c-2.7-1.4-4-3.8-3.8-6.8
		c0.2-3.2,2.1-5.5,5.1-6.6C189.8,229,191.2,228.8,193,228.4z M196.4,236.5c-0.3-1-0.4-2-0.9-2.9c-0.8-1.7-3.1-2.3-4.7-1.3
		c-2.4,1.6-2.6,6.2-0.3,7.9c0.5,0.4,1.2,0.6,1.8,0.6C194.7,241,196.2,239.3,196.4,236.5z"/>
	<path d="M77.3,228.5c3.3,0.2,6.2,1,8.1,3.8c2.8,4.2,0.7,9.5-4.4,11.2c-2.7,0.9-5.5,0.9-8.2-0.3c-3-1.3-4.8-3.9-4.7-7
		c0.1-3.1,2.1-5.9,5.2-6.9C74.6,229,76,228.8,77.3,228.5z M81.3,236.5c-0.5-1.2-0.8-2.5-1.5-3.5c-0.9-1.3-2.8-1.5-4-0.8
		c-1.5,0.8-2.4,3.4-2,5.5c0.4,1.9,1.6,3.1,3.2,3.2C79.3,241.1,81,239.3,81.3,236.5z"/>
	<path d="M287.1,228.4c2.5,0.3,4.8,0.9,6.6,2.6c3.2,3.1,3.1,7.9-0.3,10.9c-3.3,2.9-10,3-13.3,0.1c-4.1-3.5-3.3-9.9,1.6-12.2
		C283.4,229.1,285.3,228.9,287.1,228.4z M290.4,236.6c0-2.8-1.3-4.6-3.5-4.7c-1.6,0-2.8,0.8-3.4,2.4c-0.8,2.1-0.4,4.7,1.1,5.8
		c0.6,0.4,1.3,0.8,2,0.8C288.9,241,290.4,239.3,290.4,236.6z"/>
	<path d="M56.3,228.6c3,0.1,5.7,0.9,7.6,3.3c2.6,3.2,1.8,8.4-1.8,10.6c-3.6,2.3-7.5,2.4-11.3,0.4c-2.8-1.4-4.2-4.3-3.8-7.3
		c0.4-3.1,2.7-5.6,5.9-6.4C54,228.8,55.2,228.8,56.3,228.6z M52.4,236.4c0.2,0.8,0.4,1.7,0.7,2.5c0.5,1.3,1.6,2,3,2
		c1.5,0,2.6-0.7,3.2-2.1c0.9-2,0.7-4-0.6-5.8c-0.8-1.1-2.3-1.4-3.7-1C53.6,232.5,52.6,234.1,52.4,236.4z"/>
	<path d="M308,228.6c2.5,0,4.7,0.6,6.7,2.2c3.6,3,3.3,8.9-0.6,11.5c-3.6,2.4-7.5,2.5-11.4,0.6c-2.7-1.4-4.2-4.3-3.9-7.2
		c0.4-3.4,2.6-5.8,5.9-6.6C305.7,228.9,306.9,228.8,308,228.6z M311.9,236.6c-0.1-0.1-0.2-0.1-0.3-0.2c-0.1-1.7-0.4-3.4-2.1-4.3
		c-1.1-0.6-2.4-0.5-3.4,0.3c-1.8,1.4-2.3,4.3-1.1,6.6c1,2,3.7,2.6,5.2,1C310.9,239.2,311.3,237.8,311.9,236.6z"/>
	<path d="M45.2,229.3c-0.3,1-0.5,2-0.8,3c-1.3-0.1-2.5-0.2-3.7-0.2c-2.3,0.1-4.1,1.7-4.2,3.7c-0.1,2.5,1.1,4.1,3.6,4.5
		c1.4,0.2,2.9,0,4.5,0c0.2,0.9,0.3,1.9,0.5,3.1c-3.2,0.7-6.2,1-9.2-0.1c-3.1-1.1-4.9-3.6-5-6.6c-0.1-3,1.7-5.8,4.6-7.1
		C38.3,228.5,42.1,228.3,45.2,229.3z"/>
	<path d="M166.5,193.8c2.2,0.3,4,0.6,5.9,0.9c3.5,0.6,5.4,2.7,6.1,5.9c0.1,0.5-0.1,1.1-0.3,1.6c-0.1,0.2-0.5,0.4-0.8,0.4
		c-0.2,0-0.5-0.4-0.6-0.7c-0.2-0.9-0.4-1.9-0.6-2.8c-0.3-1.5-1.5-2.3-2.7-2.8c-2-0.8-4.1-1.1-6.3-0.8c-1.5,0.2-3,0.2-4.8,0.4
		c4.2-4,4.7-8.8,3.1-14c-1.7-5.2-5.9-7.6-10.9-9.3c3-0.8,9.2,3.4,11.7,7.4C169.1,184.7,168.2,189.3,166.5,193.8z"/>
	<path d="M42.9,272.5c-1.7,0-3.5,0-5.2,0c0-0.1,0-0.2-0.1-0.3c0.5-0.1,0.9-0.3,1.4-0.4c0-4.1,0-8.2,0-12.4c-0.5-0.1-1-0.2-1.5-0.3
		c0-0.1,0-0.2,0-0.4c1.1,0,2.3,0,3.6,0c0,1.9,0,3.9,0,5.6c1.4-0.5,2.8-1.3,4.2-1.5c2.2-0.3,3.4,1,3.4,3.2c0,1.8,0,3.6,0,5.5
		c0,0.1,0.1,0.2,0.1,0.3c0.5,0.1,1,0.2,1.5,0.3c0,0.1,0,0.2,0,0.3c-1.7,0-3.5,0-5.2,0c0-0.1-0.1-0.2-0.1-0.3
		c0.5-0.1,0.9-0.2,1.5-0.3c0-2.2,0.1-4.4-0.1-6.6c0-0.4-1-1.2-1.4-1.2c-1.2,0.2-2.4,0.7-3.6,1.2c-0.2,0.1-0.3,0.5-0.4,0.7
		c0,2,0,3.9,0,5.9c0.6,0.1,1.1,0.2,1.6,0.3C42.9,272.3,42.9,272.4,42.9,272.5z"/>
	<path d="M307.6,271.8c0.7,0.1,1.2,0.2,1.7,0.3c0,0.1,0,0.2,0,0.3c-1.1,0-2.3,0-3.5,0c0-0.4-0.1-0.9-0.1-1.6c-1.4,1.4-3,2.3-4.9,1.9
		c-0.9-0.2-1.8-0.6-2.4-1.3c-1.6-1.6-1.7-4.7-0.3-6.8c1.5-2.2,4-2.5,7.6-0.9c0-1.5,0-3,0-4.5c-0.5-0.1-1-0.2-1.6-0.3
		c0-0.1,0-0.2,0-0.4c1.1,0,2.3,0,3.6,0C307.6,263.1,307.6,267.4,307.6,271.8z M305.7,267.5c-0.1-0.9,0.1-2.2-0.4-2.5
		c-1.1-0.6-2.5-1-3.8-1c-1.1,0-2,0.9-2.2,2c-0.2,1.2-0.2,2.5,0,3.7c0.3,1.5,1.4,2.1,3,1.9C304.8,271.4,305.6,270.5,305.7,267.5z"/>
	<path d="M146.4,271c-2.5,2.2-5.2,2.5-7,1c-1.8-1.5-2.1-4.6-0.8-6.8c1.5-2.4,3.8-2.8,7.8-1.2c0-1.5,0-3,0-4.5
		c-0.6-0.1-1.1-0.2-1.6-0.4c0-0.1,0-0.2,0.1-0.4c1.1,0,2.3,0,3.6,0c0,4.3,0,8.7,0,13c0.6,0.1,1.2,0.3,1.7,0.4c0,0.1,0,0.2,0,0.3
		c-1.1,0-2.3,0-3.5,0C146.5,272,146.5,271.5,146.4,271z M146.5,267.6c0-2.8-0.2-3.1-2.1-3.6c-1.9-0.4-3.4,0.2-4,1.6
		c-0.8,1.9-0.3,4.8,1,5.7c0.3,0.2,0.7,0.3,1,0.3C145.2,272,146.5,270.6,146.5,267.6z"/>
	<path d="M155.6,271.6c-0.1,0.4-0.1,0.7-0.2,1c-0.6,0-1.1,0-1.7,0c0-4.4,0-8.7,0-13.1c-0.6-0.1-1.2-0.2-1.7-0.3c0-0.1,0-0.3,0-0.4
		c1.1,0,2.2,0,3.5,0c0,1.9,0,3.9,0,5.8c1.4-0.6,2.7-1.3,4.1-1.6c1.5-0.3,2.9,0.3,3.8,1.6c1.4,1.8,1.2,5.1-0.3,6.8
		C161.3,273.3,158.9,273.4,155.6,271.6z M155.6,268.1c0,2.8,0.3,3.3,2.4,3.7c1.9,0.4,3.1-0.2,3.8-1.8c0.8-1.9,0.3-4.7-1-5.5
		c-0.3-0.2-0.8-0.3-1.2-0.4C157,263.8,155.6,265.2,155.6,268.1z"/>
	<path d="M106.8,263.2c-0.3,0.6-0.3,0.6-2.4,0.9c1.4,3.3-0.1,5.5-3.7,5.5c-0.3,0-0.6-0.1-0.8,0c-0.5,0.3-0.9,0.7-1.4,1.1
		c0.5,0.2,0.9,0.6,1.4,0.6c1.6,0.2,3.2,0.2,4.8,0.3c1,0.1,1.9,0.6,1.9,1.5c0,0.8-0.5,1.9-1.1,2.2c-1.5,0.6-3.2,1.1-4.8,1.2
		c-1.2,0.1-2.5-0.3-3.7-0.7c-0.6-0.2-1.3-0.8-1.3-1.4c-0.1-0.4,0.7-1,1.1-1.4c0.2-0.2,0.6-0.3,1-0.5c-1.4-1.5-1.4-1.7,1-3.1
		c-0.4-0.3-0.8-0.5-1.1-0.8c-1.6-1.2-1.6-3.7,0.1-4.8c0.8-0.5,1.9-0.9,2.9-0.9C102.6,262.8,104.7,263.1,106.8,263.2z M103,266.1
		c0-1.8-0.8-2.7-2.4-2.7c-1.5,0-2.3,1-2.3,2.8c0,1.8,0.8,2.7,2.4,2.7C102.4,268.9,103,268.1,103,266.1z M100.9,272.3
		C100.9,272.4,100.9,272.4,100.9,272.3c-0.7,0.1-1.4-0.1-2,0.1c-0.5,0.2-1.1,0.7-1.3,1.2c-0.2,0.4,0.1,1.2,0.4,1.5
		c1.1,1.1,5.1,0.7,6.1-0.5c0.7-0.8,0.5-1.8-0.6-2C102.7,272.4,101.8,272.4,100.9,272.3z"/>
	<path d="M258.7,272.2c0.5-0.1,1-0.2,1.5-0.3c0-4.1,0-8.2,0-12.3c-0.5-0.1-1.1-0.3-1.6-0.4c0-0.1,0-0.2,0.1-0.4c1.1,0,2.3,0,3.5,0
		c0,1.9,0,3.9,0,5.9c1.1-0.6,2.1-1.3,3.2-1.6c2.7-0.8,4.5,0.5,4.5,3.3c0,1.7,0,3.4,0,5.1c0,0.1,0,0.2,0.1,0.4c0.5,0.1,1,0.3,1.6,0.4
		c0,0.1,0,0.2,0,0.3c-1.7,0-3.5,0-5.2,0c0-0.1,0-0.2-0.1-0.3c0.5-0.1,1-0.2,1.6-0.4c0-2.1,0-4.3,0-6.4c0-0.4-0.3-0.9-0.6-1.1
		c-1.2-0.7-2.3-0.3-3.5,0.2c-0.9,0.4-1.7,0.9-1.6,2.2c0.1,1.7,0,3.3,0,5.1c0.6,0.1,1.1,0.2,1.7,0.3c0,0.1,0,0.2,0,0.3
		c-1.7,0-3.5,0-5.2,0C258.7,272.4,258.7,272.3,258.7,272.2z"/>
	<path d="M18.6,263.2c1.4,0,2.9,0,4.3,0c0,0.1,0.1,0.2,0.1,0.3c-0.5,0.1-1,0.3-1.6,0.5c0.7,2.1,1.5,4.1,2.3,6.5c1-2.2,1.9-4.2,2.8-6
		c0.2-0.5,0.7-0.8,1.1-1.3c0.4,0.4,0.9,0.8,1.1,1.3c0.9,1.9,1.7,3.8,2.6,6.1c0.9-2.3,1.8-4.4,2.6-6.5c-0.6-0.1-1.1-0.2-1.6-0.4
		c0-0.1,0-0.2,0-0.3c1.2,0,2.3,0,3.8,0c-2.2,1-2,3.2-2.9,4.9c-0.6,1.1-1,2.4-1.5,3.6c-0.2,0.4-0.6,0.6-0.8,1
		c-0.3-0.3-0.7-0.5-0.9-0.9c-1-2.1-1.9-4.2-2.9-6.6c-0.7,1.5-1.3,2.7-1.9,3.9c-0.4,0.9-0.8,1.9-1.3,2.8c-0.2,0.3-0.6,0.7-0.8,0.7
		c-0.3,0-0.6-0.5-0.8-0.8c-0.8-2.2-1.6-4.5-2.4-6.7C19.6,264.5,19.1,263.9,18.6,263.2z"/>
	<path d="M231.6,271.8c0.7,0.1,1.2,0.2,1.7,0.3c0,0.1,0,0.2,0,0.3c-1.7,0-3.5,0-5.2,0c0-0.1,0-0.2-0.1-0.3c0.5-0.1,1-0.2,1.5-0.3
		c0-2.2,0.1-4.4-0.1-6.6c0-0.4-0.7-1-1.2-1.1c-1.5-0.3-2.8,0.2-3.9,1.2c-0.2,0.2-0.3,0.6-0.3,0.9c0,1.9,0,3.8,0,5.8
		c0.6,0.1,1.1,0.2,1.6,0.3c0,0.1,0,0.2,0,0.3c-1.7,0-3.5,0-5.2,0c0-0.1-0.1-0.1-0.1-0.2c0.5-0.1,0.9-0.3,1.4-0.5c0-2.6,0-5.2,0-7.9
		c-0.5-0.1-0.9-0.2-1.4-0.3c0-0.1,0-0.2,0-0.3c1.2,0,2.3,0,3.5,0c0,0.4,0.1,0.9,0.1,1c1.4-0.5,2.8-1.2,4.3-1.4
		c2-0.2,3.2,1.1,3.3,3.1C231.7,267.9,231.6,269.8,231.6,271.8z"/>
	<path d="M114.9,262.8c3.5,0,5.7,1.9,5.7,5c0,3.1-2.2,5.1-5.8,5.1c-3.4,0-5.5-1.9-5.5-5C109.4,264.8,111.5,262.8,114.9,262.8z
		 M111.6,267.9c0,2.5,1.3,4.2,3.3,4.3c1.9,0.1,3.3-1.2,3.6-3.2c0.4-2.6-0.7-4.8-2.6-5.2c-0.1,0-0.3,0-0.4-0.1
		C113.1,263.4,111.6,265.1,111.6,267.9z"/>
	<path d="M128.9,272.9c-1.9-0.1-3.7-0.7-4.7-2.5c-0.9-1.7-0.9-3.5,0.2-5.2c1.5-2.5,5.8-3.1,8.5-1.3c2.1,1.4,2.7,4.6,1.2,6.9
		C132.8,272.5,131,272.9,128.9,272.9z M125.4,267.6c0.1,0.1,0.2,0.1,0.3,0.2c0.1,0.5,0.1,0.9,0.2,1.4c0.5,1.9,1.6,2.9,3.2,2.9
		c1.7,0,2.9-1,3.4-2.9c0.4-1.5,0.2-2.9-0.6-4.2c-1.1-1.6-3.5-2.1-4.7-0.7C126.4,265.2,126,266.5,125.4,267.6z"/>
	<path d="M284.4,272.3c-1.2,1-2.2,0.8-3.4-0.8c-0.4,0.2-0.8,0.5-1.2,0.6c-0.9,0.3-1.9,0.7-2.8,0.7c-1.7,0.1-3.1-1-3.3-2.4
		c-0.2-1.3,0.8-2.4,2.5-2.9c0.7-0.2,1.4-0.3,2.1-0.4c0.7-0.1,1.4-0.1,2.1-0.1c0.5-1.7,0.2-2.8-0.9-3.3c-1.3-0.5-2.9,0-3.7,1.2
		c-0.2,0.2-0.5,0.3-0.8,0.5c-0.5-1.4-0.1-2.1,1.1-2.2c1.5-0.1,3-0.3,4.4-0.1c1.6,0.2,2.2,1.2,2.2,2.8c0,1.2,0,2.4,0,3.6
		C282.6,271.5,282.6,271.5,284.4,272.3z M280.5,267.7c-1.3,0.2-2.4,0.2-3.4,0.6c-0.6,0.3-1.2,1.3-1.2,1.9c0,1.1,1.1,1.7,2.1,1.5
		c0.9-0.1,2.2,0,2.4-1.4C280.6,269.6,280.5,268.8,280.5,267.7z"/>
	<path d="M183.4,267.6c-0.3,3.7,2.4,5,7.4,3.6c-0.3,0.5-0.3,1-0.6,1.2c-2.3,1.3-6.1,0.6-7.9-1.4c-1.6-1.8-1.6-4.7,0-6.5
		c1.7-1.8,5-2.2,6.8-0.8c1.2,0.9,1.6,2.2,1.5,3.9C188.2,267.6,185.8,267.6,183.4,267.6z M188.4,266.7c0.1-2.3-0.6-3.1-2.2-3.1
		c-1.8,0-2.7,1-2.7,3.1C185.1,266.7,186.7,266.7,188.4,266.7z"/>
	<path d="M62.4,267.6c-2.4,0-4.8,0-7.1,0c-0.7,3.5,2,4.9,7.3,3.9c-0.2,0.3-0.4,0.8-0.7,0.9c-2.2,0.7-4.4,0.9-6.5-0.3
		c-2.4-1.4-3.2-4.5-1.8-6.8c1.5-2.4,5.1-3.2,7.3-1.6C62.1,264.5,62.4,265.9,62.4,267.6z M55.2,266.7c1.7,0,3.3,0,4.9,0
		c0.1-2-0.5-3-2-3.1C56.3,263.5,55.3,264.4,55.2,266.7z"/>
	<path d="M85.2,267.6c-2.5,0-4.8,0-7.1,0c-0.7,3.5,2,4.9,7.4,3.6c-0.3,0.5-0.4,1-0.7,1.1c-2.1,1.2-5.9,0.6-7.6-1.1
		c-1.8-1.8-2-4.7-0.4-6.6c1.6-1.9,4.9-2.4,6.9-1C85,264.6,85.3,265.9,85.2,267.6z M83.1,266.7c-0.1-2.4-0.7-3.2-2.5-3.1
		c-1.7,0.1-2.5,1.1-2.5,3.1C79.8,266.7,81.5,266.7,83.1,266.7z"/>
	<path d="M173.2,270.7c1.3-2.4,2.5-4.6,3.7-6.8c-0.7-0.1-1.2-0.2-1.7-0.3c0-0.1,0-0.2,0-0.3c1.2,0,2.3,0,3.3,0
		c-0.6,0.8-1.2,1.6-1.7,2.4c-1.7,3-3.4,6-5,9.1c-0.7,1.3-1.5,1.8-3,1.4c0.8-0.9,1.5-1.8,2.4-2.6c0.7-0.6,0.6-1.1,0.2-1.8
		c-1.1-2.1-2.2-4.3-3.3-6.3c-0.4-0.8-1-1.4-1.5-2.2c1.4,0,3,0,4.6,0c0,0.1,0,0.2,0.1,0.3c-0.5,0.1-1,0.3-1.7,0.5
		C170.9,266.1,172,268.2,173.2,270.7z"/>
	<path d="M209.4,270.1c0.3,0.1,0.7,0.2,0.9,0.4c0.9,1.5,2.8,2.2,4.3,1.4c0.5-0.2,1-0.8,1-1.3c0-0.4-0.4-1-0.8-1.3
		c-0.9-0.5-1.9-0.7-2.9-1.1c-2-0.8-2.8-1.8-2.7-3c0.2-1.2,1.8-2.3,3.6-2.3c0.7,0,1.5,0.1,2.2,0.1c1.4,0,2.1,0.6,1.6,2.4
		c-0.3-0.1-0.8-0.2-1-0.4c-0.7-1.3-2.7-1.8-3.9-1c-1,0.7-1,1.8,0,2.4c0.9,0.5,1.9,0.8,2.9,1.1c0.5,0.2,1.1,0.3,1.4,0.6
		c0.6,0.6,1.4,1.3,1.4,2c0,0.7-0.6,1.7-1.3,2.1c-2.1,1.3-4.4,1-6.6,0.2c-0.4-0.1-0.4-1.2-0.6-1.9
		C209.1,270.3,209.2,270.2,209.4,270.1z"/>
	<path d="M68.9,264.3c1.4-0.6,2.8-1.2,4.4-2c0.1,1,0.2,1.4,0.1,1.8c0,0.4-0.3,0.7-0.4,1c-0.3-0.2-0.5-0.5-0.8-0.7
		c-0.2-0.2-0.5-0.3-0.8-0.3c-1.6,0-2.5,1.1-2.5,2.7c0,1.6,0,3.3,0,4.9c0.5,0.1,1,0.2,1.5,0.3c0,0.1,0,0.2,0,0.3c-1.7,0-3.4,0-5.2,0
		c0-0.1,0-0.2,0-0.3c0.5-0.1,1-0.2,1.6-0.3c0-2.7,0-5.3,0-8c-0.6-0.1-1-0.2-1.5-0.3c0-0.1,0-0.2,0-0.3c1.2,0,2.3,0,3.6,0
		C68.8,263.6,68.9,264.1,68.9,264.3z"/>
	<path d="M289.8,271.9c0.6,0.1,1,0.2,1.5,0.2c0,0.1,0,0.2,0,0.3c-1.7,0-3.4,0-5.1,0c0-0.1,0-0.2-0.1-0.3c0.5-0.1,0.9-0.2,1.6-0.3
		c0-2.5,0.1-5-0.1-7.5c0-0.4-0.9-0.7-1.7-1.1c1.4,0,2.5,0,3.8,0c0,0.3,0.1,0.8,0.2,1.4c0.7-0.5,1.3-1,2-1.3c0.7-0.3,1.5-0.4,2.5-0.6
		c0,0.6,0.1,1.1,0.1,1.5c0,0.4-0.3,0.7-0.4,1c-0.3-0.2-0.5-0.5-0.8-0.7c-0.2-0.2-0.5-0.4-0.8-0.4c-1.5,0-2.5,1.1-2.6,2.6
		C289.8,268.5,289.8,270.1,289.8,271.9z"/>
	<path d="M246,260.9c0.1,0.7,0.2,1.4,0.3,2.2c1,0,1.9,0,2.8,0c0,0.1,0.1,0.3,0.1,0.4c-0.7,0.8-1.9,0.1-2.8,0.5c0,2.3-0.2,4.7,0.1,7
		c0.1,1.3,1.5,1.2,2.8,1.2c-0.2,0.2-0.4,0.5-0.6,0.6c-2.2,0.8-4.3-0.6-4.4-3c-0.1-1.5,0-3.1,0-4.6c0-0.4,0-0.7-0.1-1.1
		c-0.6-0.2-1.1-0.4-1.6-0.5c0-0.1,0.1-0.2,0.1-0.4c0.5-0.1,1-0.1,1.5-0.2c0.1-0.5,0.1-1.1,0.2-1.7C244.8,261.2,245.4,261,246,260.9z
		"/>
	<path d="M200.8,272.2c0.5-0.1,0.9-0.2,1.5-0.3c0-2.6,0-5.2,0-8c-0.5-0.1-1-0.2-1.5-0.3c0-0.1,0-0.2,0-0.3c1.1,0,2.3,0,3.6,0
		c0,2.8,0,5.6,0,8.5c0.7,0.1,1.2,0.3,1.7,0.4c0,0.1,0,0.2,0,0.3c-1.7,0-3.5,0-5.2,0C200.8,272.4,200.8,272.3,200.8,272.2z"/>
	<path d="M238.9,258.7c0.2,3.1-0.3,4-2.6,4.5c0.4-0.4,0.7-0.7,0.8-1c0.1-0.4,0.2-1.4,0.1-1.4c-1.4-0.3-0.7-1.3-0.8-2.1
		C237.3,258.7,238.1,258.7,238.9,258.7z"/>
	<path d="M204.4,259.6c0,0.5,0,0.9,0,1.4c-0.6,0-1.2,0-1.9,0c0-0.4,0-0.9,0-1.4C203.1,259.6,203.7,259.6,204.4,259.6z"/>
</g>
</svg>
